<svg width="156" height="91" viewBox="0 0 156 91" fill="none" xmlns="http://www.w3.org/2000/svg">
<path d="M133.924 27.2894L133.825 27.31C133.06 27.4714 132.573 28.2234 132.738 28.9857L134.583 37.6805C134.744 38.4463 134.257 39.1949 133.496 39.3563C132.731 39.5177 131.983 39.0301 131.822 38.2677L129.977 29.573C129.816 28.8072 129.065 28.3196 128.304 28.4844L128.204 28.505C127.44 28.6664 126.953 29.4184 127.117 30.1808L128.962 38.8756C129.123 39.6413 128.636 40.3899 127.875 40.5513C127.11 40.7127 126.363 40.2251 126.202 39.4628L124.357 30.768C124.196 30.0022 123.445 29.5146 122.683 29.6794L122.584 29.7C121.819 29.8614 121.332 30.6134 121.497 31.3758L123.489 40.7745C124.196 44.1089 127.097 46.4097 130.358 46.4921L134.668 72.47C135.018 74.5819 136.671 76.0757 138.279 75.7323C139.888 75.3889 140.793 73.356 140.255 71.2819L133.65 45.7916C136.596 44.3871 138.314 41.1076 137.607 37.7733L135.615 28.3745C135.454 27.6087 134.703 27.1211 133.941 27.2859L133.924 27.2894Z" fill="#FF6B00"/>
<path d="M37.4587 72.3496C37.4587 72.3496 22.4353 75.9243 10.5703 67.2913L19.8291 53.4902C19.8291 53.4902 25.5765 58.5382 31.5501 56.828L37.4552 72.3496H37.4587Z" fill="#80A55C" stroke="#005731" stroke-width="2.24528" stroke-miterlimit="10" stroke-linecap="round"/>
<path d="M111.816 70.7497C111.816 70.7497 126.521 75.4646 139.013 67.7656L130.835 53.2949C130.835 53.2949 126.212 58.0304 120.386 55.867L111.816 70.7463V70.7497Z" fill="#80A55C" stroke="#005731" stroke-width="2.24528" stroke-miterlimit="10" stroke-linecap="round"/>
<path d="M131.754 57.3255C131.754 57.3255 132.58 59.1798 135.008 58.5857C137.7 57.9264 138.928 52.305 133.966 51.1272C129.329 50.0249 125.252 54.9732 126.26 59.9112C127.371 65.3472 133.239 72.2907 141.938 68.0326C152.699 62.7683 147.545 49.4342 139.445 49.2144C139.445 49.2144 136.441 48.8676 133.966 51.1272" fill="white"/>
<path d="M131.754 57.3255C131.754 57.3255 132.58 59.1798 135.008 58.5857C137.7 57.9264 138.928 52.305 133.966 51.1272M133.966 51.1272C129.329 50.0249 125.252 54.9732 126.26 59.9112C127.371 65.3472 133.239 72.2907 141.938 68.0326C152.699 62.7683 147.545 49.4342 139.445 49.2144C139.445 49.2144 136.441 48.8676 133.966 51.1272Z" stroke="#005731" stroke-width="2.83333" stroke-miterlimit="10" stroke-linecap="round"/>
<path d="M74.6766 88.7398C127.27 88.2539 120.295 43.5084 119.815 40.7493C121.977 32.2744 116.792 28.3329 114.953 27.2341C109.877 33.3397 95.3273 37.117 90.5024 28.7038C86.249 21.2871 91.9472 14.3888 95.3273 11.8671C94.0242 8.60485 88.7603 8.93451 88.7603 8.93451C88.2837 9.10621 87.7522 9.02036 87.3612 8.69757C79.2134 1.98074 72.0258 6.54104 69.9409 8.1653C69.55 8.46749 69.0322 8.54304 68.5692 8.37477C60.2706 5.33915 55.4765 11.146 54.1392 13.1102C53.882 13.4845 53.4636 13.718 53.0075 13.7318C42.5142 14.0271 40.3846 23.1992 39.9971 25.7506C39.9354 26.1593 39.6988 26.5198 39.349 26.7396C32.8781 30.7573 32.9844 37.0003 33.4028 39.744C33.5194 40.5132 32.9913 41.2343 32.2231 41.3614C31.5784 41.4713 31.0846 42.0001 31.0332 42.6526C27.3057 90.443 74.6766 88.7398 74.6766 88.7398Z" fill="white"/>
<path d="M119.791 40.6162C119.791 40.6162 128.944 88.2384 74.6766 88.7398C74.6766 88.7398 27.3057 90.443 31.0332 42.6526C31.0846 42.0001 31.5784 41.4713 32.2231 41.3614C32.9913 41.2343 33.5194 40.5132 33.4028 39.744C32.9844 37.0003 32.8781 30.7573 39.349 26.7396C39.6988 26.5198 39.9354 26.1593 39.9971 25.7506C40.3846 23.1992 42.5142 14.0271 53.0075 13.7318C53.4636 13.718 53.882 13.4845 54.1392 13.1102C55.4765 11.146 60.2706 5.33915 68.5692 8.37477C69.0322 8.54304 69.55 8.46749 69.9409 8.1653C72.0258 6.54104 79.2134 1.98074 87.3612 8.69757C87.7522 9.02036 88.2837 9.10621 88.7603 8.93451C88.7603 8.93451 94.0242 8.60485 95.3273 11.8671C91.9472 14.3888 86.249 21.2871 90.5024 28.7038C95.3273 37.117 109.877 33.3397 114.953 27.2341C116.797 28.3364 122.01 32.2992 119.795 40.8291C119.657 41.3614 119.435 41.8696 119.122 42.3229C118.515 43.2054 117.332 44.6546 115.707 45.3551C115.601 45.4032 115.488 45.4375 115.374 45.4684C114.795 45.623 112.895 46.0797 111.393 45.932" stroke="#005731" stroke-width="2.83333" stroke-miterlimit="10" stroke-linecap="round"/>
<path d="M89.134 50.7471C91.5639 50.7471 93.5337 48.7746 93.5337 46.3413C93.5337 43.9081 91.5639 41.9355 89.134 41.9355C86.7042 41.9355 84.7344 43.9081 84.7344 46.3413C84.7344 48.7746 86.7042 50.7471 89.134 50.7471Z" fill="black"/>
<path d="M78.9273 53.3223C79.157 55.8806 77.271 58.1435 74.7162 58.3736C72.1615 58.6037 69.9016 56.715 69.6719 54.1567" stroke="black" stroke-width="2.24528" stroke-miterlimit="10" stroke-linecap="round"/>
<path d="M49.3009 30.8846C48.9236 28.9581 50.5354 27.0248 52.9015 26.5612C55.2642 26.0976 57.4863 27.2858 57.8601 29.2088" stroke="#005731" stroke-width="2.83333" stroke-miterlimit="10" stroke-linecap="round"/>
<path d="M70.2624 17.9645C70.5778 16.0276 72.7593 14.7738 75.137 15.1605C77.5146 15.5473 79.1875 17.4313 78.8721 19.3682" stroke="#005731" stroke-width="2.83333" stroke-miterlimit="10" stroke-linecap="round"/>
<path d="M53.56 58.3848C53.6287 54.801 49.5828 51.8169 44.5233 51.7196C39.4637 51.6224 35.3064 54.4487 35.2377 58.0325C35.169 61.6163 39.2149 64.6003 44.2744 64.6976C49.334 64.7949 53.4912 61.9686 53.56 58.3848Z" fill="#FF6B00"/>
<path d="M112.189 58.2188C112.258 54.635 108.212 51.6509 103.152 51.5536C98.0926 51.4564 93.9353 54.2827 93.8666 57.8665C93.7979 61.4503 97.8438 64.4343 102.903 64.5316C107.963 64.6289 112.12 61.8025 112.189 58.2188Z" fill="#FF6B00"/>
<path d="M90.4619 46.8217C91.5282 46.8217 92.3925 45.9561 92.3925 44.8884C92.3925 43.8207 91.5282 42.9551 90.4619 42.9551C89.3956 42.9551 88.5312 43.8207 88.5312 44.8884C88.5312 45.9561 89.3956 46.8217 90.4619 46.8217Z" fill="white"/>
<path d="M58.3254 50.6983C60.7553 50.6983 62.7251 48.7257 62.7251 46.2925C62.7251 43.8593 60.7553 41.8867 58.3254 41.8867C55.8956 41.8867 53.9258 43.8593 53.9258 46.2925C53.9258 48.7257 55.8956 50.6983 58.3254 50.6983Z" fill="black"/>
<path d="M59.8564 46.8217C60.9227 46.8217 61.7871 45.9561 61.7871 44.8884C61.7871 43.8207 60.9227 42.9551 59.8564 42.9551C58.7902 42.9551 57.9258 43.8207 57.9258 44.8884C57.9258 45.9561 58.7902 46.8217 59.8564 46.8217Z" fill="white"/>
<path d="M38.1445 42.4941C38.1445 42.4941 41.344 43.9364 45.2087 43.9364Z" fill="white"/>
<path d="M38.1445 42.4941C38.1445 42.4941 41.344 43.9364 45.2087 43.9364" stroke="#005731" stroke-width="2.83333" stroke-miterlimit="10" stroke-linecap="round"/>
<path d="M13.8089 71.6377L21.4561 46.4153C25.0259 46.5664 28.7294 43.7093 30.2863 39.2933C32.1106 34.1183 30.3034 28.7613 26.2501 27.3293C22.1968 25.8974 17.4302 28.9296 15.6058 34.1045C14.049 38.5241 15.1395 43.0706 18.0131 45.1997L8.1542 69.6392C7.31405 71.7236 7.97588 73.966 9.60475 74.5429C11.2336 75.1198 13.1574 73.7908 13.8089 71.6377Z" fill="#FF6B00"/>
<path d="M18.6062 57.435C18.6062 57.435 17.6392 59.2207 15.2627 58.4412C12.6291 57.5792 11.8335 51.8788 16.871 51.0822C21.5793 50.337 25.2657 55.5841 23.8837 60.4328C22.3612 65.7658 15.9794 72.2422 7.62933 67.3282C-2.69599 61.2536 3.45942 48.3522 11.5523 48.7574C11.5523 48.7574 14.5735 48.6406 16.871 51.0856" fill="white"/>
<path d="M18.6062 57.435C18.6062 57.435 17.6392 59.2207 15.2627 58.4412C12.6291 57.5792 11.8335 51.8788 16.871 51.0822C21.5793 50.337 25.2657 55.5841 23.8837 60.4328C22.3612 65.7658 15.9794 72.2422 7.62933 67.3282C-2.69599 61.2536 3.45942 48.3522 11.5523 48.7574C11.5523 48.7574 14.5735 48.6406 16.871 51.0856" stroke="#005731" stroke-width="2.83333" stroke-miterlimit="10" stroke-linecap="round"/>
<path d="M13.8124 71.639L17.4302 59.7129C17.2279 59.7644 16.8644 59.8159 16.8644 59.8159V59.809C17.101 63.5658 13.7404 64.3968 13.7404 64.3968C13.7404 64.3968 13.562 64.4792 13.3323 64.5033C13.3769 64.8295 13.37 65.1901 13.274 65.5987C12.6259 68.3699 10.1191 68.1467 8.87776 67.8479L8.1542 69.6405C7.31405 71.7249 7.97588 73.9673 9.60475 74.5442C11.2336 75.1211 13.1574 73.7921 13.8089 71.639H13.8124Z" fill="#FF6B00"/>
<path d="M134.676 72.577L132.293 60.3418C132.488 60.4139 132.845 60.4998 132.845 60.4998C132.224 64.2084 135.482 65.376 135.482 65.376C135.482 65.376 135.65 65.4756 135.88 65.5236C135.801 65.843 135.774 66.2036 135.825 66.6191C136.185 69.4418 138.706 69.4761 139.968 69.3079L140.502 71.1622C141.127 73.3222 140.238 75.4856 138.558 75.8908C136.878 76.296 135.101 74.7782 134.673 72.5736L134.676 72.577Z" fill="#FF6B00"/>
<path d="M13.7383 64.396C13.7383 64.396 17.7847 63.3967 16.6805 58.627" stroke="#005731" stroke-width="2.83333" stroke-miterlimit="10" stroke-linecap="round"/>
<path d="M136.073 64.6367C136.073 64.6367 132.112 63.3318 133.58 58.6582" stroke="#005731" stroke-width="2.83333" stroke-miterlimit="10" stroke-linecap="round"/>
</svg>
